<?xml version="1.0" encoding="utf-8"?>
<!-- Generator: Adobe Illustrator 24.0.0, SVG Export Plug-In . SVG Version: 6.00 Build 0)  -->
<svg version="1.1" id="Layer_1" xmlns="http://www.w3.org/2000/svg" xmlns:xlink="http://www.w3.org/1999/xlink" x="0px" y="0px"
	 viewBox="0 0 289 99" style="enable-background:new 0 0 289 99;" xml:space="preserve">
<g>
	<path d="M53,66.9c0,6.3-2.2,11.5-6.6,15.4c-4.4,3.9-10.3,5.9-17.5,5.9c-6,0-11.4-1.2-16.3-3.6c-3-1.4-5.1-2.8-6.2-4.1l6.2-9.6
		c5.6,3.6,10.8,5.4,15.5,5.4c3.3,0,5.9-0.7,7.8-2.2c1.9-1.5,2.9-3.4,2.9-5.9c0-1.9-0.6-3.4-1.8-4.6c-1.2-1.2-4.7-3-10.6-5.5
		c-5.9-2.4-10.1-4.9-12.6-7.4c-3.5-3.5-5.3-7.7-5.3-12.6c0-5.9,2.2-10.7,6.5-14.4c4.3-3.6,9.9-5.4,16.6-5.4c5.5,0,10.6,1.1,15.2,3.4
		c2.5,1.3,4.5,2.6,5.8,3.9l-6.4,9.1c-4.3-3.3-8.8-5-13.7-5c-3,0-5.4,0.6-7.3,1.9c-1.9,1.3-2.8,3-2.8,5.1c0,1.5,0.6,2.9,1.7,4
		c0.7,0.7,4.2,2.4,10.5,5.1c6.3,2.7,10.7,5.4,13.3,7.9C51.3,57.3,53,61.7,53,66.9z"/>
	<path d="M103.7,62.2c0,0.8,0,1.7-0.1,2.6c-0.1,0.9-0.1,1.5-0.1,1.6H71.1c-0.1,2.4,0.7,4.7,2.5,6.9c2.4,2.8,5.8,4.2,10.1,4.2
		c3.8,0,8.2-1.2,13.1-3.5l4.4,8.6c-1.1,0.9-2.9,1.8-5.4,2.8c-4.3,1.7-8.7,2.6-13.3,2.6c-7.7,0-13.8-2.5-18.2-7.5
		C60.1,75.9,58,69.8,58,62.3c0-7.6,2.2-13.9,6.6-18.8c4.4-5,10.1-7.5,17-7.5c7.1,0,12.6,2.4,16.5,7.1
		C101.8,47.7,103.7,54.1,103.7,62.2z M91.2,56.7c0-3.1-0.8-5.6-2.4-7.6c-1.6-2-3.9-3.1-6.9-3.1c-2.9,0-5.4,1-7.2,3
		c-1.9,2-3.1,4.5-3.6,7.7H91.2z"/>
	<path d="M148.7,86.6H137v-3.5c-4.6,3.1-9.2,4.6-13.9,4.6c-4.9,0-8.7-1.4-11.6-4.3c-2.9-2.9-4.3-6.7-4.3-11.5
		c0-11.9,9.1-17.8,27.4-17.8h1.4c0-2.9-0.5-4.8-1.5-5.8c-1.3-1.3-3.7-2-7-2c-4.5,0-8.9,1.2-13.1,3.6l-4.5-8.6
		c4.6-3.5,10.8-5.3,18.7-5.3c7.1,0,12.4,1.8,16.1,5.5c1.8,1.8,3,4.1,3.5,6.9c0.3,1.7,0.5,4.6,0.5,8.7V86.6z M136,74.5V63.3h-2.1
		c-9.9,0-14.9,2.6-14.9,7.7c0,4.3,2.5,6.5,7.6,6.5C129.7,77.5,132.9,76.5,136,74.5z"/>
	<path d="M189.6,37.3l-3.1,10.2c-0.7-0.2-1.7-0.3-3-0.3c-6.1,0-10.7,2.4-13.8,7.1v32.3h-13.5V37.4h11.5v6.2c0.7-1.1,2.2-2.5,4.6-4.1
		c3.7-2.3,7.6-3.5,11.7-3.5C186,36,187.9,36.5,189.6,37.3z"/>
	<path d="M232.8,81.9c-0.9,0.9-2.6,2-5.1,3.1c-4.3,2-8.8,3-13.6,3c-7.6,0-13.7-2.4-18.3-7.2c-4.6-4.8-6.9-11-6.9-18.4
		c0-7.6,2.5-13.9,7.5-18.9c5-5,11.2-7.5,18.6-7.5c4.5,0,8.5,0.9,12.1,2.6c2.5,1.2,4.2,2.3,4.9,3.4l-5.4,8.3
		c-3.2-2.3-6.7-3.4-10.4-3.4c-4.2,0-7.6,1.6-10.3,4.8c-2.3,2.9-3.5,6.2-3.5,10c0,4.5,1.1,8.1,3.3,10.8c2.4,2.9,5.8,4.4,10.1,4.4
		c3.5,0,7.5-1.2,11.8-3.6L232.8,81.9z"/>
	<path d="M280.3,86.6h-13.5V60.7c0-6.2-0.7-10-2.1-11.4c-1.2-1.2-3-1.8-5.3-1.8c-3,0-6,1-9.1,3.1v36h-13.5V14.2h13.5v25.5
		c4.1-2.5,8.1-3.7,11.9-3.7c5.3,0,9.6,1.6,12.8,4.8c2.5,2.5,4,5.6,4.7,9.3c0.4,2,0.6,5.3,0.6,10V86.6z"/>
</g>
<g>
	<path d="M76.5,10l-1,1c-1-1-2.2-1.4-3.6-1.4c-1,0-1.9,0.3-2.7,0.9c-0.8,0.6-1.2,1.4-1.2,2.4c0,0.9,0.6,1.8,1.8,2.5
		c1.1,0.6,2.2,1.3,3.3,1.9c1.2,0.9,1.8,2,1.8,3.4c0,1.5-0.5,2.8-1.6,3.9s-2.6,1.6-4.5,1.6c-2,0-3.7-0.7-4.9-2.1l1-1.1
		c0.6,0.5,1,0.9,1.3,1c0.8,0.5,1.7,0.7,2.8,0.7c1.4,0,2.4-0.4,3.2-1.1c0.7-0.7,1.1-1.6,1.1-2.7c0-0.8-0.3-1.6-1-2.2
		c-0.4-0.3-1.1-0.8-2.3-1.5s-2-1.2-2.5-1.8c-0.6-0.6-0.9-1.4-0.9-2.3c0-1.5,0.6-2.7,1.8-3.7c1.1-0.9,2.4-1.4,3.9-1.4
		C74,8.1,75.5,8.8,76.5,10z"/>
	<path d="M87.7,14.1l-1.9,11.6h-1.4l0.2-1.4c-1.2,1.1-2.5,1.6-3.7,1.6c-1.3,0-2.3-0.4-3.1-1.3c-0.8-0.9-1.2-2-1.2-3.5
		c0-2.3,0.6-4.2,1.8-5.8c1.3-1.6,3-2.5,5-2.5C85.2,13,86.6,13.4,87.7,14.1z M86,15c-0.7-0.4-1.6-0.6-2.7-0.6c-1.5,0-2.8,0.6-3.7,1.9
		c-0.9,1.3-1.4,2.8-1.4,4.7c0,1,0.2,1.8,0.7,2.5c0.5,0.8,1.3,1.2,2.4,1.2c1.3,0,2.5-0.6,3.5-1.7L86,15z"/>
	<path d="M106.8,16.1c0,0.3-0.1,1.1-0.3,2.2l-1.3,7.5h-1.6l1.3-7.3c0.2-1.2,0.3-1.9,0.3-2.2c0-1.3-0.7-1.9-2.2-1.9
		c-1.3,0-2.6,0.6-4,1.7c0,0.4-0.1,1.1-0.3,2.3l-1.3,7.5h-1.6l1.3-7.3c0.2-1.2,0.3-1.9,0.3-2.2c0-0.6-0.2-1.1-0.6-1.5
		s-0.9-0.5-1.6-0.5c-1.3,0-2.6,0.5-3.9,1.6l-1.7,9.8h-1.6l2.1-12.5h1.5l-0.2,1.2c1.4-1,2.7-1.5,4-1.5c1.5,0,2.6,0.6,3.2,1.7
		c1.5-1.1,3-1.7,4.5-1.7c1.2,0,2.1,0.3,2.7,1C106.5,14.6,106.8,15.3,106.8,16.1z"/>
	<path d="M119.5,17.8c0,2.2-0.6,4.1-1.8,5.7c-1.3,1.7-3,2.5-5,2.5c-1.2,0-2.3-0.4-3.2-1.1l-1.1,6.4h-1.6l3.1-18h1.5l-0.2,1.2
		c1.3-1,2.6-1.5,3.9-1.5c1.3,0,2.4,0.4,3.2,1.3C119.1,15.2,119.5,16.4,119.5,17.8z M117.9,18c0-1.1-0.3-1.9-0.9-2.6
		c-0.6-0.7-1.4-1-2.4-1c-1.2,0-2.4,0.5-3.6,1.6l-1.3,7.5c1,0.8,2,1.2,3.1,1.2c1.6,0,2.9-0.7,3.8-2.2C117.5,21.2,117.9,19.7,117.9,18
		z"/>
	<path d="M124.9,7.1l-3.2,18.7h-1.6l3.2-18.7H124.9z"/>
	<path d="M135.3,15.9c0,1-0.4,1.9-1.2,2.7c-1.4,1.4-4,2.2-7.9,2.5c0,1.1,0.4,1.9,1,2.6c0.6,0.7,1.5,1,2.6,1c1,0,2-0.3,3.2-1l0.7,1.1
		c-0.3,0.3-0.8,0.5-1.5,0.8c-0.9,0.3-1.7,0.5-2.5,0.5c-1.5,0-2.8-0.5-3.7-1.4c-0.9-0.9-1.4-2.2-1.4-3.7c0-2.2,0.7-4.1,2-5.6
		c1.3-1.6,3-2.4,5.1-2.4c1,0,1.9,0.3,2.6,0.8S135.3,15,135.3,15.9z M133.7,16c0-0.5-0.2-1-0.6-1.3c-0.4-0.3-0.9-0.5-1.5-0.5
		c-1.5,0-2.8,0.7-3.9,2c-0.9,1.1-1.4,2.3-1.5,3.6c1.1-0.1,2.2-0.2,3.3-0.5c1.6-0.4,2.8-1,3.5-1.7C133.5,17.2,133.7,16.6,133.7,16z"
		/>
</g>
</svg>
